HIERARCHY
ROOT Hips
{
	OFFSET -0.001795 -0.223333 0.028219
	CHANNELS 6 Xposition Yposition Zposition Zrotation Yrotation Xrotation 
	JOINT LeftUpLeg
	{
		OFFSET 0.069520 -0.091406 -0.006815
		CHANNELS 3 Zrotation Yrotation Xrotation
		JOINT LeftLeg
		{
			OFFSET 0.034277 -0.375199 -0.004496
			CHANNELS 3 Zrotation Yrotation Xrotation
			JOINT LeftFoot
			{
				OFFSET -0.013596 -0.397961 -0.043693
				CHANNELS 3 Zrotation Yrotation Xrotation
				JOINT LeftToe
				{
					OFFSET 0.026358 -0.055791 0.119288
					CHANNELS 3 Zrotation Yrotation Xrotation
					End Site
					{
						OFFSET 0.000000 0.000000 0.000000
					}
				}
			}
		}
	}
	JOINT RightUpLeg
	{
		OFFSET -0.067670 -0.090522 -0.004320
		CHANNELS 3 Zrotation Yrotation Xrotation
		JOINT RightLeg
		{
			OFFSET -0.038290 -0.382569 -0.008850
			CHANNELS 3 Zrotation Yrotation Xrotation
			JOINT RightFoot
			{
				OFFSET 0.015774 -0.398415 -0.042312
				CHANNELS 3 Zrotation Yrotation Xrotation
				JOINT RightToe
				{
					OFFSET -0.025372 -0.048144 0.123348
					CHANNELS 3 Zrotation Yrotation Xrotation
					End Site
					{
						OFFSET 0.000000 0.000000 0.000000
					}
				}
			}
		}
	}
	JOINT Spine
	{
		OFFSET -0.002533 0.108963 -0.026696
		CHANNELS 3 Zrotation Yrotation Xrotation
		JOINT Spine1
		{
			OFFSET 0.005487 0.135180 0.001092
			CHANNELS 3 Zrotation Yrotation Xrotation
			JOINT Spine2
			{
				OFFSET 0.001457 0.052922 0.025425
				CHANNELS 3 Zrotation Yrotation Xrotation
				JOINT Neck
				{
					OFFSET -0.002778 0.213870 -0.042857
					CHANNELS 3 Zrotation Yrotation Xrotation
					JOINT Head
					{
						OFFSET 0.005152 0.064970 0.051349
						CHANNELS 3 Zrotation Yrotation Xrotation
						End Site
						{
							OFFSET 0.000000 0.000000 0.000000
						}
					}
				}
				JOINT LeftShoulder
				{
					OFFSET 0.078845 0.121749 -0.034090
					CHANNELS 3 Zrotation Yrotation Xrotation
					JOINT LeftArm
					{
						OFFSET 0.090977 0.030469 -0.008868
						CHANNELS 3 Zrotation Yrotation Xrotation
						JOINT LeftForeArm
						{
							OFFSET 0.259612 -0.012772 -0.027456
							CHANNELS 3 Zrotation Yrotation Xrotation
							JOINT LeftHand
							{
								OFFSET 0.249234 0.008986 -0.001171
								CHANNELS 3 Zrotation Yrotation Xrotation
								End Site
								{
									OFFSET 0.000000 0.000000 0.000000
								}
							}
						}
					}
				}
				JOINT RightShoulder
				{
					OFFSET -0.081759 0.118833 -0.038615
					CHANNELS 3 Zrotation Yrotation Xrotation
					JOINT RightArm
					{
						OFFSET -0.096012 0.032551 -0.009143
						CHANNELS 3 Zrotation Yrotation Xrotation
						JOINT RightForeArm
						{
							OFFSET -0.253742 -0.013329 -0.021401
							CHANNELS 3 Zrotation Yrotation Xrotation
							JOINT RightHand
							{
								OFFSET -0.255298 0.007772 -0.005559
								CHANNELS 3 Zrotation Yrotation Xrotation
								End Site
								{
									OFFSET 0.000000 0.000000 0.000000
								}
							}
						}
					}
				}
			}
		}
	}
}
MOTION
Frames: 18
Frame Time: 0.050000
-0.000171 0.953872 -0.023559 -1.717887 3.300118 1.388050 6.577717 -0.032267 4.311020 -4.928278 0.430115 -6.369472 1.853639 8.504717 13.959417 0.000000 0.000000 0.000000 -4.749736 -0.201912 4.636818 3.300433 -0.446229 -6.252306 -3.022270 -11.226198 17.480766 0.000000 0.000000 0.000000 -4.395958 0.050892 -3.717685 6.192383 -1.237126 -19.009376 1.932082 3.797568 31.024025 3.313622 0.370338 -23.529584 0.000000 0.000000 0.000000 -21.399492 6.034837 -6.312627 -54.058785 -7.926035 -5.418205 -10.881688 -22.700290 3.152897 0.000000 0.000000 0.000000 9.938958 8.774889 4.349573 42.704782 24.528236 1.779400 143.713917 58.834764 133.063616 0.000000 0.000000 0.000000 
0.000013 0.954352 -0.024264 -1.681079 3.231341 1.379368 6.403628 -0.019996 4.293061 -4.732472 0.422447 -6.383241 1.864652 8.552249 14.104913 0.000000 0.000000 0.000000 -4.671690 -0.209446 4.698894 3.054135 -0.434108 -6.445892 -2.967022 -11.170478 17.654237 0.000000 0.000000 0.000000 -4.527808 0.047940 -3.813083 6.177571 -1.247593 -18.844019 2.071103 4.425320 31.076221 3.597248 0.292524 -23.492205 0.000000 0.000000 0.000000 -21.243334 5.612295 -6.200512 -53.982810 -8.163440 -5.286941 -10.765876 -23.147262 3.161713 0.000000 0.000000 0.000000 9.574355 9.574480 4.732694 42.153297 25.468542 2.084810 144.874452 63.110742 138.770140 0.000000 0.000000 0.000000 
0.000083 0.954503 -0.024817 -1.734582 3.337710 1.386172 6.417687 -0.019211 4.437055 -4.647916 0.413536 -6.749829 1.786618 8.471824 14.212909 0.000000 0.000000 0.000000 -4.619319 -0.223903 4.846415 3.102689 -0.438040 -6.460497 -2.914428 -10.987609 17.143033 0.000000 0.000000 0.000000 -4.567159 0.046866 -3.763032 5.990367 -1.195186 -18.780462 2.323473 4.999528 31.017332 3.866387 0.224629 -23.373247 0.000000 0.000000 0.000000 -20.783604 5.300532 -6.103311 -54.149274 -8.310738 -5.213591 -10.744419 -23.494513 3.167773 0.000000 0.000000 0.000000 9.076444 9.780378 4.826277 42.049173 26.895284 2.652662 146.564997 67.264152 144.649161 0.000000 0.000000 0.000000 
0.000017 0.954777 -0.025053 -1.809966 3.560082 1.444710 6.435999 -0.022387 4.577649 -4.490066 0.399583 -7.213385 1.645748 8.321099 14.367112 0.000000 0.000000 0.000000 -4.353442 -0.249398 4.943464 2.945274 -0.430225 -6.421241 -3.050373 -11.107887 16.629580 0.000000 0.000000 0.000000 -4.564353 0.047048 -3.708898 5.806658 -1.141892 -18.706037 2.674312 5.743477 30.961711 4.324855 0.091393 -23.372579 0.000000 0.000000 0.000000 -20.591147 4.854270 -6.063177 -53.928905 -8.532085 -5.049056 -10.909993 -23.666911 3.168120 0.000000 0.000000 0.000000 8.418849 10.202052 5.007922 41.817472 28.148181 3.168659 151.600901 70.811289 154.298051 0.000000 0.000000 0.000000 
-0.000162 0.954606 -0.024861 -1.817584 3.705690 1.396546 6.470438 -0.026535 4.594860 -4.485343 0.397870 -7.171986 1.587599 8.226633 14.283880 0.000000 0.000000 0.000000 -4.229547 -0.278016 5.203470 2.934082 -0.429175 -6.327113 -3.168108 -11.161833 15.761809 0.000000 0.000000 0.000000 -4.603184 0.044959 -3.585768 5.671881 -1.103868 -18.644756 3.133338 6.427558 30.890278 4.411041 0.141900 -23.097475 0.000000 0.000000 0.000000 -20.419163 4.639835 -6.125355 -53.953738 -8.522965 -5.012671 -11.238718 -23.776410 3.202193 0.000000 0.000000 0.000000 7.728197 10.611963 5.147979 41.259812 29.648583 3.721622 159.335852 73.952590 166.373012 0.000000 0.000000 0.000000 
-0.000403 0.954607 -0.024264 -1.812368 3.771827 1.480901 6.363862 -0.017922 4.740736 -4.266696 0.386069 -7.543493 1.540386 8.185341 14.373702 0.000000 0.000000 0.000000 -4.226783 -0.286478 5.318756 3.143005 -0.440484 -6.222919 -3.286136 -11.242433 14.971991 0.000000 0.000000 0.000000 -4.817497 0.040675 -3.730769 5.482211 -1.060917 -18.451633 3.396217 7.178499 30.552644 4.916137 -0.008783 -23.305083 0.000000 0.000000 0.000000 -19.728456 4.640779 -6.183768 -54.362648 -8.652510 -4.951954 -11.416947 -23.557550 3.154281 0.000000 0.000000 0.000000 7.080657 11.258304 5.378428 40.949671 31.586082 4.524739 173.752444 77.293213 -174.268053 0.000000 0.000000 0.000000 
-0.000714 0.954464 -0.023557 -1.798735 4.207975 1.470767 6.244780 -0.017306 4.795870 -3.960272 0.369356 -7.669137 1.345400 7.913966 14.291022 0.000000 0.000000 0.000000 -4.212148 -0.319423 5.666131 3.375851 -0.462350 -6.472632 -3.586974 -11.696083 14.742263 0.000000 0.000000 0.000000 -4.981087 0.033282 -3.870727 5.277468 -0.992105 -18.438979 3.759652 7.531809 30.451880 4.982467 0.024655 -23.073179 0.000000 0.000000 0.000000 -19.315999 4.699173 -6.275588 -54.836823 -8.428406 -5.091491 -11.448345 -23.241916 3.080978 0.000000 0.000000 0.000000 6.076960 12.001761 5.541859 39.843855 34.131886 5.392462 -153.415441 79.877088 -135.563910 0.000000 0.000000 0.000000 
-0.001099 0.955070 -0.023160 -1.681017 3.752383 1.538862 5.928935 0.022456 5.068118 -3.672360 0.365285 -8.093738 1.491267 8.189876 14.681000 0.000000 0.000000 0.000000 -4.629327 -0.287296 5.728792 3.860780 -0.487566 -6.640231 -3.316186 -11.249939 14.614383 0.000000 0.000000 0.000000 -5.092687 0.032937 -4.061730 5.332199 -1.024695 -18.337076 3.831933 8.805805 30.165108 5.794417 -0.262909 -23.411001 0.000000 0.000000 0.000000 -19.185023 4.330913 -6.317121 -54.892548 -7.936982 -5.238808 -11.094500 -22.909302 2.901463 0.000000 0.000000 0.000000 4.921966 14.014010 6.182061 37.312731 38.031721 6.438536 -100.425363 76.532832 -75.432792 0.000000 0.000000 0.000000 
-0.001742 0.955540 -0.023236 -1.506756 3.704741 1.479709 5.694424 0.038104 4.965613 -3.527378 0.362678 -7.785361 1.493023 8.217145 14.790253 0.000000 0.000000 0.000000 -4.768886 -0.276825 5.720973 4.233771 -0.507441 -6.488285 -3.790257 -12.083451 14.448711 0.000000 0.000000 0.000000 -5.214817 0.029086 -4.026143 4.813970 -0.885935 -18.108592 4.251590 9.699412 29.531318 6.288259 -0.473634 -23.047397 0.000000 0.000000 0.000000 -18.922367 3.868087 -6.235874 -55.265651 -7.836832 -5.226263 -10.720555 -22.273238 2.691805 0.000000 0.000000 0.000000 2.818867 16.047033 6.525595 33.191302 43.919772 7.618147 -71.463191 65.444892 -40.532326 0.000000 0.000000 0.000000 
-0.002803 0.956697 -0.023950 -1.369326 3.203452 1.443468 5.389377 0.085276 5.376618 -3.235218 0.360121 -8.379862 1.603873 8.491015 15.427452 0.000000 0.000000 0.000000 -4.823747 -0.277620 5.926493 4.103967 -0.496954 -6.916687 -3.517794 -11.677006 14.583343 0.000000 0.000000 0.000000 -4.797782 0.044410 -3.457626 4.559808 -0.793752 -18.496754 4.201710 11.654883 29.051896 7.813057 -1.062541 -23.564835 0.000000 0.000000 0.000000 -19.278244 3.316154 -6.506422 -54.717796 -7.188335 -5.273973 -10.985533 -21.761434 2.578007 0.000000 0.000000 0.000000 -0.093132 18.898710 6.872213 24.692275 49.809913 6.905336 -55.653946 47.794805 -20.347189 0.000000 0.000000 0.000000 
-0.004266 0.957500 -0.025113 -1.119897 3.411420 1.380544 5.139820 0.082489 4.908205 -3.071800 0.351701 -7.624880 1.490286 8.374968 15.525965 0.000000 0.000000 0.000000 -4.874436 -0.277388 5.914006 4.388925 -0.513431 -6.620455 -4.116218 -12.660012 14.103106 0.000000 0.000000 0.000000 -4.950061 0.041776 -2.844191 4.207013 -0.672520 -18.696315 4.146691 13.016872 28.307832 9.255833 -1.625676 -24.052736 0.000000 0.000000 0.000000 -18.842992 2.738640 -6.486784 -55.232272 -7.242981 -5.187790 -9.801847 -20.910653 2.183360 0.000000 0.000000 0.000000 -4.340258 20.967614 6.363465 15.145584 56.216127 5.061520 -45.103443 28.814795 -8.801497 0.000000 0.000000 0.000000 
-0.006018 0.958570 -0.026459 -0.969832 3.362614 1.361405 4.791056 0.119012 5.171551 -2.567240 0.339286 -8.199262 1.398419 8.378170 16.085430 0.000000 0.000000 0.000000 -5.008241 -0.293024 6.320214 4.424713 -0.518412 -7.472452 -3.878596 -12.305474 14.582636 0.000000 0.000000 0.000000 -4.592328 0.049255 -1.567698 3.881278 -0.527611 -19.569665 3.936445 15.050852 27.761648 10.745868 -2.045376 -24.883943 0.000000 0.000000 0.000000 -18.950975 2.012770 -6.722543 -54.674630 -6.922224 -5.057837 -9.833781 -20.093799 1.996797 0.000000 0.000000 0.000000 -8.303223 22.736225 5.665583 2.772984 59.112971 0.409739 -35.868402 12.237205 -2.313461 0.000000 0.000000 0.000000 
-0.007624 0.959284 -0.027686 -0.917562 4.229358 1.664650 4.864676 0.070737 4.577994 -2.468852 0.326926 -8.140438 0.943050 7.861705 16.255982 0.000000 0.000000 0.000000 -4.850025 -0.302325 6.090282 4.534475 -0.534616 -7.251672 -4.263548 -12.843241 14.193505 0.000000 0.000000 0.000000 -4.340357 0.051209 -1.006488 3.024644 -0.248930 -19.840418 3.728428 15.959619 27.134718 12.079668 -2.566454 -25.164294 0.000000 0.000000 0.000000 -18.440677 1.377424 -6.643509 -54.508376 -6.865890 -4.954268 -9.389993 -20.243180 1.847756 0.000000 0.000000 0.000000 -12.554503 23.110155 4.366722 -7.379584 59.651023 -3.701633 -27.419888 1.865109 0.320547 0.000000 0.000000 0.000000 
-0.008876 0.959771 -0.028640 -0.812064 4.697353 1.731523 4.784471 0.064439 4.493579 -2.314714 0.319415 -8.362719 0.657360 7.562951 16.473339 0.000000 0.000000 0.000000 -4.656833 -0.336015 6.272429 4.401782 -0.535784 -7.633146 -4.617269 -13.436552 14.294393 0.000000 0.000000 0.000000 -4.043783 0.047615 -0.275670 2.592435 -0.094792 -20.341364 3.513115 17.498299 26.644475 12.665898 -2.547719 -25.459685 0.000000 0.000000 0.000000 -17.928606 0.980470 -6.777638 -54.304959 -6.459310 -5.007879 -10.849139 -20.542970 2.010427 0.000000 0.000000 0.000000 -15.012623 23.103727 3.499477 -13.280899 58.049106 -5.631825 -20.012024 -2.411618 0.798456 0.000000 0.000000 0.000000 
-0.009653 0.959664 -0.029309 -0.754117 5.207671 1.932543 4.768331 0.051676 4.409009 -2.231072 0.315120 -8.819670 0.376433 7.247406 16.579574 0.000000 0.000000 0.000000 -4.752054 -0.338133 6.294619 4.603079 -0.553943 -7.811491 -4.669671 -13.454272 14.086707 0.000000 0.000000 0.000000 -3.943040 0.048190 -0.250563 2.168196 0.044437 -20.597389 3.789852 18.465137 26.586397 13.556230 -2.758133 -26.019063 0.000000 0.000000 0.000000 -18.026710 0.451794 -6.929198 -53.982409 -5.759847 -5.141473 -10.880984 -20.720366 1.953873 0.000000 0.000000 0.000000 -16.140537 23.045710 3.054756 -15.416733 56.847127 -6.010141 -14.987388 -5.232036 0.855083 0.000000 0.000000 0.000000 
-0.010039 0.959789 -0.029886 -0.742150 5.819182 1.935586 4.808757 0.030506 4.192265 -2.181578 0.306743 -8.688039 0.077839 6.877303 16.526281 0.000000 0.000000 0.000000 -4.542167 -0.352744 6.143642 4.342790 -0.545557 -7.472325 -4.922408 -13.842295 14.116596 0.000000 0.000000 0.000000 -3.948985 0.044561 0.184383 2.057961 0.098739 -20.900317 3.863279 19.581235 26.526891 13.944546 -2.726456 -26.120224 0.000000 0.000000 0.000000 -18.481635 0.209701 -7.408151 -52.970278 -5.516018 -4.928575 -12.380100 -21.008471 2.151677 0.000000 0.000000 0.000000 -16.131860 22.779499 2.920426 -15.392961 54.787087 -5.401056 -11.486047 -4.970783 0.598232 0.000000 0.000000 0.000000 
-0.010190 0.959566 -0.030536 -0.696371 6.460644 2.097565 4.927215 -0.001293 3.880687 -2.361336 0.303270 -8.702166 -0.232261 6.485051 16.454809 0.000000 0.000000 0.000000 -4.613173 -0.368855 6.294133 4.509396 -0.566660 -7.929162 -5.115160 -14.134462 14.293272 0.000000 0.000000 0.000000 -3.876803 0.046268 -0.132698 1.733418 0.203067 -21.014432 4.164351 20.081263 26.582219 13.756734 -2.408167 -26.328450 0.000000 0.000000 0.000000 -18.470978 0.351968 -7.751441 -52.635299 -5.313290 -4.899041 -12.858363 -20.758712 2.151945 0.000000 0.000000 0.000000 -15.917318 22.708668 2.935501 -13.847015 53.691602 -4.466173 -8.832409 -5.359187 0.452601 0.000000 0.000000 0.000000 
-0.010234 0.959693 -0.031358 -0.692844 7.483905 1.995599 4.903969 -0.031374 3.414001 -2.163717 0.286159 -8.076059 -0.689236 5.871648 16.196337 0.000000 0.000000 0.000000 -4.303426 -0.423857 6.486838 4.189340 -0.561217 -7.795644 -5.516972 -14.750806 14.260832 0.000000 0.000000 0.000000 -4.153040 0.044408 -0.188521 1.805080 0.194264 -20.678068 4.287631 20.175725 26.215791 13.573024 -2.370008 -25.474558 0.000000 0.000000 0.000000 -19.234987 -0.013257 -8.105588 -51.585736 -5.080333 -4.625539 -13.441277 -20.403351 2.179530 0.000000 0.000000 0.000000 -14.444601 23.029756 3.553991 -11.363624 51.075578 -3.352413 -8.220337 -3.613716 0.336150 0.000000 0.000000 0.000000 
